<?xml version="1.0" encoding="UTF-8" standalone="no"?>
<!-- Created with Inkscape (http://www.inkscape.org/) -->

<svg
   xmlns:dc="http://purl.org/dc/elements/1.1/"
   xmlns:cc="http://creativecommons.org/ns#"
   xmlns:rdf="http://www.w3.org/1999/02/22-rdf-syntax-ns#"
   xmlns:svg="http://www.w3.org/2000/svg"
   xmlns="http://www.w3.org/2000/svg"
   xmlns:sodipodi="http://sodipodi.sourceforge.net/DTD/sodipodi-0.dtd"
   xmlns:inkscape="http://www.inkscape.org/namespaces/inkscape"
   width="1280"
   height="640"
   viewBox="0 0 338.66666 169.33333"
   version="1.1"
   id="svg8"
   inkscape:version="0.92.5 (2060ec1f9f, 2020-04-08)"
   sodipodi:docname="snip-github-banner.svg"
   inkscape:export-filename="/home/fabiojose/snip/artwork/snip-horizontal.png"
   inkscape:export-xdpi="96"
   inkscape:export-ydpi="96">
  <defs
     id="defs2" />
  <sodipodi:namedview
     id="base"
     pagecolor="#ffffff"
     bordercolor="#666666"
     borderopacity="1.0"
     inkscape:pageopacity="0.0"
     inkscape:pageshadow="2"
     inkscape:zoom="0.7"
     inkscape:cx="731.55738"
     inkscape:cy="407.15004"
     inkscape:document-units="mm"
     inkscape:current-layer="layer1"
     showgrid="false"
     inkscape:window-width="1848"
     inkscape:window-height="1016"
     inkscape:window-x="72"
     inkscape:window-y="27"
     inkscape:window-maximized="1"
     fit-margin-top="5"
     fit-margin-left="5"
     fit-margin-right="5"
     fit-margin-bottom="5"
     units="px" />
  <metadata
     id="metadata5">
    <rdf:RDF>
      <cc:Work
         rdf:about="">
        <dc:format>image/svg+xml</dc:format>
        <dc:type
           rdf:resource="http://purl.org/dc/dcmitype/StillImage" />
        <dc:title></dc:title>
      </cc:Work>
    </rdf:RDF>
  </metadata>
  <g
     inkscape:label="Layer 1"
     inkscape:groupmode="layer"
     id="layer1"
     transform="translate(48.542898,-87.748193)">
    <g
       id="g4797"
       transform="matrix(0.72135462,0,0,0.72135462,54.551952,17.006094)">
      <path
         style="fill:#8c08e1;fill-opacity:1;stroke-width:0.26452547"
         inkscape:connector-curvature="0"
         d="m 77.350751,140.64246 c -1.48796,-0.61211 -3.18515,-0.27511 -4.32446,0.86024 l -47.87911,47.61459 20.01003,36.07915 c 21.84663,-21.05993 34.64252,-50.54394 34.64252,-80.88818 0,-1.60435 -0.96499,-3.05342 -2.44898,-3.6658 z"
         id="path4781" />
      <path
         style="fill:#ad39f8;fill-opacity:1;stroke-width:0.26452547"
         inkscape:connector-curvature="0"
         d="m 27.952731,141.30166 c -1.28453,-1.86041 -2.56669,-3.7232 -3.96788,-5.51351 -2.82672,-3.61183 -5.80422,-7.12737 -9.09835,-10.42151 -1.13138,-1.13137 -2.84021,-1.47631 -4.324464,-0.86023 -1.483988,0.61211 -2.448977,2.06144 -2.448977,3.66553 v 75.65428 l 7.998191,3.96789 h 11.84122 14.75417 l 5.07757,-3.96789 c -0.2431,-22.58571 -7.24588,-44.29664 -19.83148,-62.52456 z"
         id="path4783" />
      <path
         style="fill:#be63f9;fill-opacity:1;stroke-width:0.26452547"
         inkscape:connector-curvature="0"
         d="m 47.784211,203.82649 c -0.2431,-22.58572 -7.24615,-44.29691 -19.83174,-62.52483 v 66.49271 h 14.75417 z"
         id="path4785" />
      <path
         style="fill:#8c08e1;fill-opacity:1;stroke-width:0.26452547"
         inkscape:connector-curvature="0"
         d="m -6.053337,207.31373 -32.70778,46.05415 c -1.092755,1.53054 -0.961022,3.61527 0.313991,4.99847 1.266548,1.37474 3.332492,1.67921 4.955885,0.70919 l 53.682532,-32.47262 z"
         id="path4787" />
      <path
         style="fill:#ad39f8;fill-opacity:1;stroke-width:0.26452547"
         inkscape:connector-curvature="0"
         d="m -51.669431,203.82649 c -1.945321,0 -3.603631,1.41045 -3.917623,3.33249 -0.310023,1.92204 0.817649,3.78589 2.66192,4.398 l 46.03431,15.25651 15.004148,-22.98674 h -59.782755 z"
         id="path4789" />
      <path
         style="fill:#f5e6fe;fill-opacity:1;stroke-width:0.26452547"
         inkscape:connector-curvature="0"
         d="m 78.637141,236.8599 c -1.2401,-1.2438 -1.55779,-3.05739 -0.93008,-4.31653 6.61843,-13.2231 -3.06452,-28.71688 -17.74701,-28.71688 H 47.784211 27.952471 8.11306 c -8.76558,0 -15.871528,7.10568 -15.871528,15.87153 0,2.45532 0.339915,4.81992 0.867379,7.1152 3.22192,3.24123 13.469108,19.25878 34.84356,22.61825 2.52701,0.39706 5.17491,0.65735 8.02094,0.65735 8.88911,0 18.09963,-2.5987 25.11802,-6.61446 2.69313,-0.15501 5.34738,-0.86024 7.74583,-2.06145 1.25544,-0.62772 2.94893,-0.18596 4.18876,1.05784 1.54986,1.54985 4.061,1.54985 5.61085,0 1.55039,-1.55012 1.55039,-4.061 2.7e-4,-5.61085 z"
         id="path4791" />
      <path
         style="fill:#daa6fc;fill-opacity:1;stroke-width:0.26452547"
         inkscape:connector-curvature="0"
         d="m 61.091691,243.47409 c 2.69313,-0.15501 5.34738,-0.86023 7.74584,-2.06144 1.25543,-0.62772 2.94893,-0.18596 4.18876,1.05784 1.54985,1.54985 4.06099,1.54985 5.61085,0 1.54985,-1.54986 1.54985,-4.061 0,-5.61085 -1.2401,-1.2438 -1.55779,-3.05739 -0.93008,-4.31653 6.61843,-13.2231 -3.06452,-28.71689 -17.74701,-28.71689 h -12.17584 -19.83174 v 45.60525 c 2.52701,0.39706 5.17491,0.65735 8.02094,0.65735 8.88911,-2.7e-4 18.09989,-2.5987 25.11828,-6.61473 z"
         id="path4793" />
      <circle
         style="fill:#550589;fill-opacity:1;stroke-width:0.26452547"
         cx="59.960308"
         cy="223.66589"
         r="3.9678822"
         id="circle4795" />
    </g>
    <text
       id="text4801"
       y="196.54214"
       x="117.81765"
       style="font-style:normal;font-variant:normal;font-weight:normal;font-stretch:normal;font-size:73.71257019px;line-height:1.25;font-family:Keraleeyam;-inkscape-font-specification:Keraleeyam;letter-spacing:3.85989189px;word-spacing:0px;fill:#07cf7f;fill-opacity:1;stroke:none;stroke-width:1.84281421"
       xml:space="preserve"><tspan
         dx="0 0 0"
         style="font-style:normal;font-variant:normal;font-weight:normal;font-stretch:normal;font-family:Keraleeyam;-inkscape-font-specification:Keraleeyam;letter-spacing:3.85989189px;fill:#07cf7f;fill-opacity:1;stroke-width:1.84281421"
         y="196.54214"
         x="117.81765"
         id="tspan4799"
         sodipodi:role="line">snip</tspan></text>
    <text
       xml:space="preserve"
       style="font-style:normal;font-variant:normal;font-weight:normal;font-stretch:normal;font-size:9.36777878px;line-height:1.25;font-family:'Abyssinica SIL';-inkscape-font-specification:'Abyssinica SIL';letter-spacing:0px;word-spacing:0px;fill:#3f0365;fill-opacity:1;stroke:none;stroke-width:0.23419449"
       x="44.013226"
       y="228.9698"
       id="text852"><tspan
         sodipodi:role="line"
         id="tspan850"
         x="44.013226"
         y="228.9698"
         style="font-style:normal;font-variant:normal;font-weight:normal;font-stretch:normal;font-family:'Abyssinica SIL';-inkscape-font-specification:'Abyssinica SIL';fill:#3f0365;fill-opacity:1;stroke-width:0.23419449">The easiest way to scaffold projects</tspan></text>
  </g>
</svg>
